<svg xmlns="http://www.w3.org/2000/svg" viewBox="0 0 40 40"><defs><style>.cls-1{fill:#5e5d5d;}.cls-2{fill:#fff;fill-rule:evenodd;}</style></defs><title>SJZ ICON資產 1</title><g id="圖層_2" data-name="圖層 2"><g id="圖層_1-2" data-name="圖層 1"><rect class="cls-1" width="40" height="40" rx="4" ry="4"/><path class="cls-2" d="M33.48,24.72l5.77,7.16H34.71A17.68,17.68,0,0,1,23.39,27ZM20.12,8.11,24.88,14l-5.64,4.22a21.87,21.87,0,0,1,.88-10.12Zm-.24,12.82,7.2-4.17L31.28,22l-9.4,3.06a16.09,16.09,0,0,1-2-4.13Z"/><path class="cls-2" d="M33,31.89H.75L20.08,8.17A21.26,21.26,0,0,0,19,18.32v0c0,.05,0,.1,0,.15L.75,31.89l18.83-10.8a15.72,15.72,0,0,0,2,4.08L.75,31.89,23,27a17.35,17.35,0,0,0,10,4.88Z"/></g></g></svg>