<svg xmlns="http://www.w3.org/2000/svg" viewBox="0 0 38.5 23.79"><defs><style>.cls-1{fill:#fff;fill-rule:evenodd;}</style></defs><title>SJZ ICON(P)資產 2</title><g id="圖層_2" data-name="圖層 2"><g id="圖層_1-2" data-name="圖層 1"><path class="cls-1" d="M32.73,16.61l5.77,7.16H34a17.68,17.68,0,0,1-11.33-4.93ZM19.37,0l4.76,5.91-5.64,4.22A21.87,21.87,0,0,1,19.37,0Zm-.24,12.82,7.2-4.17,4.2,5.23-9.4,3.06a16.09,16.09,0,0,1-2-4.13Z"/><path class="cls-1" d="M32.29,23.79H0L19.34.07A21.26,21.26,0,0,0,18.2,10.21v0c0,.05,0,.1,0,.15L0,23.79,18.83,13a15.72,15.72,0,0,0,2,4.08L0,23.79l22.28-4.88a17.35,17.35,0,0,0,10,4.88Z"/></g></g></svg>